Coordinates
version=1
nRows=11
nColumns=40
inDegrees=yes

Units are S.I. units (second, meters, Newtons, ...)
Angles are in degrees.

endheader
time	pelvis_tilt	pelvis_list	pelvis_rotation	pelvis_tx	pelvis_ty	pelvis_tz	hip_flexion_r	hip_adduction_r	hip_rotation_r	knee_angle_r	knee_angle_r_beta	ankle_angle_r	subtalar_angle_r	mtp_angle_r	hip_flexion_l	hip_adduction_l	hip_rotation_l	knee_angle_l	knee_angle_l_beta	ankle_angle_l	subtalar_angle_l	mtp_angle_l	lumbar_extension	lumbar_bending	lumbar_rotation	arm_flex_r	arm_add_r	arm_rot_r	elbow_flex_r	pro_sup_r	wrist_flex_r	wrist_dev_r	arm_flex_l	arm_add_l	arm_rot_l	elbow_flex_l	pro_sup_l	wrist_flex_l	wrist_dev_l
      0.87000000	     -3.26295238	     -2.98569894	      3.39016608	     -0.61146516	      0.88357473	     -1.07186868	     28.88145040	     -3.15520720	    -21.32604785	    -20.43304261	     -0.35662387	      6.06417152	     -4.15771129	     14.18418642	      9.63711698	      2.49351609	      8.61390061	    -28.90190690	     -0.50443344	     16.58760171	      6.33549759	      0.23448101	     -3.92937387	      1.98311404	     -7.60792889	     -1.22122781	     -8.59877526	    -15.72691539	     23.92209125	     89.95437384	      0.00000000	      0.00000000	     13.85612203	     12.55491790	      7.02406726	     36.27073494	     89.95437384	      0.00000000	      0.00000000
      0.88000000	     -3.17354811	     -3.05269137	      3.68294126	     -0.60534732	      0.88319121	     -1.07167679	     28.86624599	     -3.34350731	    -22.44383035	    -19.65736958	     -0.34308582	      5.19666195	     -2.95758136	      6.81233505	      9.12773543	      2.67816328	      8.59137114	    -28.82693782	     -0.50312498	     16.20643075	      6.66032024	     -4.92775475	     -3.94992449	      2.09630701	     -7.86774880	     -1.23187984	     -8.55632533	    -15.92420996	     23.49420815	     89.95437384	      0.00000000	      0.00000000	     13.96664280	     12.42788223	      7.14125296	     36.17826416	     89.95437384	      0.00000000	      0.00000000
      0.89000000	     -3.33474780	     -2.96374202	      3.85355771	     -0.59945074	      0.88237822	     -1.07124839	     29.20923607	     -3.47084436	    -22.45529749	    -19.17375383	     -0.33464513	      5.20452795	     -2.81236797	      6.74319571	      8.89377917	      2.65997642	      8.60779795	    -28.83898814	     -0.50333530	     16.31536371	      6.52177884	     -4.91795629	     -3.75013076	      2.02365759	     -7.98628822	     -1.42285572	     -8.53183319	    -15.95173091	     23.39024755	     89.95437384	      0.00000000	      0.00000000	     14.00770068	     12.34545111	      7.11250893	     36.19696273	     89.95437384	      0.00000000	      0.00000000
      0.90000000	     -3.48468395	     -2.87810009	      4.02778981	     -0.59346662	      0.88161474	     -1.07072775	     29.44337166	     -3.57128903	    -22.50997193	    -18.66869391	     -0.32583018	      5.22035489	     -2.63805655	      6.68429250	      8.65206541	      2.65893506	      8.59134607	    -28.87760466	     -0.50400928	     16.45449474	      6.39868617	     -4.91701327	     -3.53823506	      1.92728427	     -8.09961232	     -1.55333006	     -8.49890956	    -15.97628964	     23.16534335	     89.95437384	      0.00000000	      0.00000000	     14.04192381	     12.24701582	      7.11083227	     36.18612851	     89.95437384	      0.00000000	      0.00000000
      0.91000000	     -3.28413180	     -3.15562780	      4.40787918	     -0.58731344	      0.88148649	     -1.07017964	     29.08929642	     -3.27044432	    -22.50937261	    -17.97941570	     -0.31380000	      4.74835127	     -2.11260796	      6.53667580	      8.13173124	      3.09064522	      8.21897764	    -29.05862029	     -0.50716860	     16.66886100	      5.99955009	     -5.03373931	     -3.70190307	      2.27073012	     -8.42574977	     -1.46723765	     -8.40460904	    -16.48919328	     22.76640469	     89.95437384	      0.00000000	      0.00000000	     14.10619255	     12.08167052	      7.36796196	     36.12542338	     89.95437384	      0.00000000	      0.00000000
      0.92000000	     -3.31171005	     -3.07752641	      4.67140645	     -0.58098389	      0.88085388	     -1.06965775	     29.16278987	     -3.39941350	    -22.48883056	    -17.86829147	     -0.31186052	      4.83479171	     -2.04574495	      6.41651427	      7.75350074	      3.11272878	      8.07702571	    -29.11141767	     -0.50809009	     16.81683568	      5.71647743	     -5.07477808	     -3.56336374	      2.20244382	     -8.69989751	     -1.50493329	     -8.35422211	    -16.53418934	     22.46220866	     89.95437384	      0.00000000	      0.00000000	     14.03134472	     12.04380153	      7.37652250	     36.09839703	     89.95437384	      0.00000000	      0.00000000
      0.93000000	     -3.41620725	     -2.96606940	      4.84421016	     -0.57474087	      0.88001832	     -1.06883312	     29.40570861	     -3.52931953	    -22.22029063	    -18.09329855	     -0.31578763	      4.70619186	     -2.01206122	      6.30037496	      7.54809664	      3.12750143	      8.00049968	    -29.35344294	     -0.51231423	     16.56159788	      5.56286755	     -4.99622416	     -3.41971052	      2.06662679	     -8.74774061	     -1.84939944	     -8.30247655	    -16.47255975	     22.56818168	     89.95437384	      0.00000000	      0.00000000	     13.93821380	     11.96995833	      7.36340043	     36.29090063	     89.95437384	      0.00000000	      0.00000000
      0.94000000	     -3.32251847	     -2.95193671	      5.13044957	     -0.56806354	      0.87964181	     -1.06828257	     29.20373620	     -3.56031337	    -22.26565767	    -18.10483033	     -0.31598890	      4.78090901	     -2.23979047	      6.25725709	      6.97148395	      3.20794120	      7.73800742	    -29.31383682	     -0.51162297	     17.01456271	      5.32919757	     -5.09046587	     -3.37583859	      2.09558424	     -9.07558277	     -1.74655607	     -8.27037932	    -16.58940408	     22.01746930	     89.95437384	      0.00000000	      0.00000000	     13.83197399	     11.92023012	      7.40263234	     36.14310863	     89.95437384	      0.00000000	      0.00000000
      0.95000000	     -3.33684374	     -2.84266128	      5.41691854	     -0.56115572	      0.87897815	     -1.06751573	     29.13657878	     -3.68181094	    -22.18582654	    -18.28523572	     -0.31913757	      4.85818442	     -2.40649320	      6.17698132	      6.58562169	      3.25306577	      7.69597487	    -29.43614454	     -0.51375764	     16.99180748	      5.20306618	     -5.06996274	     -3.22128269	      1.98549273	     -9.33871426	     -1.96627305	     -8.19968071	    -16.67686967	     22.02485408	     89.95437384	      0.00000000	      0.00000000	     13.62913921	     11.90119238	      7.40726423	     36.17038299	     89.95437384	      0.00000000	      0.00000000
      0.96000000	     -3.43377852	     -2.72224595	      5.56585228	     -0.55456327	      0.87815384	     -1.06646836	     29.20436399	     -3.75271518	    -21.82876056	    -18.68512479	     -0.32611695	      4.70500169	     -2.38707639	      6.05594289	      6.38228869	      3.27036165	      7.52709676	    -29.74420935	     -0.51913439	     16.66421763	      5.04174021	     -4.98306116	     -3.03967631	      1.84840312	     -9.38724948	     -2.29578798	     -8.14426735	    -16.63775773	     22.19854798	     89.95437384	      0.00000000	      0.00000000	     13.42657899	     11.84541315	      7.40701435	     36.35291116	     89.95437384	      0.00000000	      0.00000000
      0.97000000	     -3.04129552	     -2.74234536	      5.99663017	     -0.54733332	      0.87816488	     -1.06578796	     28.63029507	     -3.74805613	    -21.95142547	    -19.19933609	     -0.33509163	      5.02183908	     -3.20772332	      6.06438335	      5.46933538	      3.45029638	      7.11659526	    -29.72572580	     -0.51881179	     17.33036551	      4.89803301	     -5.11807780	     -3.28107552	      1.93672065	     -9.88075018	     -2.10426698	     -8.05742483	    -16.81997302	     21.64434078	     89.95437384	      0.00000000	      0.00000000	     13.24813986	     11.82763200	      7.50816700	     36.17610298	     89.95437384	      0.00000000	      0.00000000
